<svg width="14" height="16" viewBox="0 0 14 16" fill="none" xmlns="http://www.w3.org/2000/svg">
<path fill-rule="evenodd" clip-rule="evenodd" d="M3 0C2.44769 0 2 0.447716 2 1V2.17071C0.834778 2.58254 0 3.69378 0 5C0 6.30622 0.834778 7.41746 2 7.82929V15C2 15.5523 2.44769 16 3 16C3.55231 16 4 15.5523 4 15V7.82929C5.16522 7.41746 6 6.30622 6 5C6 3.69378 5.16522 2.58254 4 2.17071V1C4 0.447716 3.55231 0 3 0ZM4 5C4 5.55228 3.55231 6 3 6C2.44769 6 2 5.55228 2 5C2 4.44772 2.44769 4 3 4C3.55231 4 4 4.44772 4 5Z" fill="#D9D9D9"/>
<path fill-rule="evenodd" clip-rule="evenodd" d="M11 0C10.4477 0 10 0.447716 10 1V8.17071C8.83478 8.58254 8 9.69378 8 11C8 12.3062 8.83478 13.4175 10 13.8293V15C10 15.5523 10.4477 16 11 16C11.5523 16 12 15.5523 12 15V13.8293C13.1652 13.4175 14 12.3062 14 11C14 9.69378 13.1652 8.58254 12 8.17071V1C12 0.447716 11.5523 0 11 0ZM12 11C12 11.5523 11.5523 12 11 12C10.4477 12 10 11.5523 10 11C10 10.4477 10.4477 10 11 10C11.5523 10 12 10.4477 12 11Z" fill="#D9D9D9"/>
</svg>
